<?xml version="1.0" encoding="UTF-8"?>
<svg id="Capa_1" data-name="Capa 1" xmlns="http://www.w3.org/2000/svg" viewBox="0 0 136.01 134.81">
  <path d="m79.1,134.81v-46.6h15.47c1.17-6.97,2.29-13.65,3.5-20.91h-18.97c-.22-6.68-2.34-14.13,2.33-18.32,3.95-3.54,10.93-3.7,17.41-5.61,0-3.47.11-8.25-.08-13.02-.04-1.08-1.09-2.98-1.79-3.04-8.75-.74-17.58-2.86-26.14,1.26-9.47,4.56-13.46,12.46-13.92,22.49-.23,5.12-.04,10.26-.04,15.93h-16.74v20.88h16.44v46.74C26.93,130.87-1.8,103.74.09,64.46,1.77,29.47,27.02,3.43,60.97.34c42.23-3.85,71.16,25.78,74.66,60.12,3.94,38.74-22.41,69.36-56.53,74.35Z"/>
</svg>