<?xml version="1.0" encoding="UTF-8"?>
<svg id="Capa_2" data-name="Capa 2" xmlns="http://www.w3.org/2000/svg" viewBox="0 0 179.98 179.98">
  <defs>
    <style>
      .cls-1 {
        fill: #1d1d1b;
      }
    </style>
  </defs>
  <g id="Capa_1-2" data-name="Capa 1">
    <g>
      <path class="cls-1" d="m89.99,179.98C40.37,179.98,0,139.61,0,89.99S40.37,0,89.99,0s89.99,40.37,89.99,89.99-40.37,89.99-89.99,89.99Zm0-178.98C40.92,1,1,40.92,1,89.99s39.92,88.99,88.99,88.99,88.99-39.92,88.99-88.99S139.06,1,89.99,1Z"/>
      <polygon class="cls-1" points="172.99 122.73 138.39 69.15 133.65 121.77 85.72 36.32 88.57 71.58 87.58 71.66 84.36 31.84 132.94 118.47 137.65 66.16 173.83 122.19 172.99 122.73"/>
      <polygon class="cls-1" points="94.66 146.87 46.33 60.88 41.62 112.79 5.98 58.24 6.82 57.7 40.89 109.84 45.62 57.58 93.29 142.4 90.47 107.48 91.47 107.4 94.66 146.87"/>
      <path class="cls-1" d="m89.24,108.39c-10.15,0-18.4-8.25-18.4-18.4s8.25-18.4,18.4-18.4,18.4,8.25,18.4,18.4-8.25,18.4-18.4,18.4Zm0-35.8c-9.6,0-17.4,7.81-17.4,17.4s7.81,17.4,17.4,17.4,17.4-7.81,17.4-17.4-7.81-17.4-17.4-17.4Z"/>
    </g>
  </g>
</svg>