<?xml version="1.0" encoding="utf-8"?>
<!-- Generator: Adobe Illustrator 27.5.0, SVG Export Plug-In . SVG Version: 6.00 Build 0)  -->
<svg version="1.1" id="Capa_1" xmlns="http://www.w3.org/2000/svg" xmlns:xlink="http://www.w3.org/1999/xlink" x="0px" y="0px"
	 viewBox="0 0 534.5 94.3" style="enable-background:new 0 0 534.5 94.3;" xml:space="preserve">
<style type="text/css">
	.st0{fill:none;}
	.st1{fill:#161616;}
	.st2{fill:#FFFFFF;}
</style>
<rect y="0" class="st0" width="534.5" height="94.3"/>
<path id="Trazado_91" class="st1" d="M318.3,94.3c-26,0-47.2-21.1-47.2-47.2S292.2,0,318.3,0c26,0,47.2,21.1,47.2,47.2l0,0
	C365.4,73.2,344.3,94.3,318.3,94.3 M318.3,3.6c-24,0-43.5,19.5-43.5,43.5s19.5,43.5,43.5,43.5s43.5-19.5,43.5-43.5
	C361.8,23.1,342.3,3.7,318.3,3.6"/>
<path id="Trazado_92" class="st1" d="M322.7,81.2l-25.2-44.7L295,62l-19.8-30.5l2.3-1.5l15.5,24l2.5-26.4l23.1,40.9L313.2,13
	l26.6,47.6L339.2,29l23.7,31.5l-2.2,1.6L342,37.3l0.7,34l-25.5-45.7L322.7,81.2L322.7,81.2z"/>
<path id="Trazado_93" class="st2" d="M327.2,47.2c0,4.9-4,8.9-8.9,8.9s-8.9-4-8.9-8.9s4-8.9,8.9-8.9l0,0
	C323.2,38.3,327.2,42.3,327.2,47.2L327.2,47.2"/>
<path id="Trazado_94" class="st1" d="M318.3,57.4c-5.7,0-10.2-4.6-10.2-10.2s4.6-10.2,10.2-10.2c5.7,0,10.2,4.6,10.2,10.2
	S323.9,57.4,318.3,57.4 M318.3,39.6c-4.1,0-7.5,3.4-7.5,7.5s3.4,7.5,7.5,7.5s7.5-3.4,7.5-7.5l0,0C325.8,43,322.4,39.6,318.3,39.6"/>
<path id="Trazado_95" class="st1" d="M77,47.2C77.5,70.8,58.8,90.4,35.1,91c-0.7,0-1.4,0-2.1,0H0V3.3h33C56.7,2.7,76.4,21.4,77,45.1
	C77,45.8,77,46.5,77,47.2 M73.9,47.2C73.9,25.6,56.4,9.3,33,9.3H3V85h30C56.4,85,73.9,68.8,73.9,47.2"/>
<path id="Trazado_100" class="st1" d="M90.3,3.3h3.1V91h-3.1V3.3z"/>
<path id="Trazado_96" class="st1" d="M105.4,67.9h3.2c0,10.6,12.4,18.7,29.1,18.7c15.2,0,27.9-7,27.9-17.7
	c0-13.5-19.9-17.8-29.1-19.7c-20.1-4.2-29.1-12.8-29.1-24.4c0-14,13.1-23,29.3-23c17.1,0,29.9,10.2,29.9,23.6h-3.1
	c0-10-11.6-17.7-26.9-17.7c-14.2,0-26,6.6-26,16.6c0,13.1,19.7,17.4,27.1,18.9c20.8,4.2,31,12.8,31,25.2c0,14.9-14.4,24-31.2,24
	C119.3,92.5,105.4,81.8,105.4,67.9"/>
<path id="Trazado_97" class="st1" d="M175.9,47.2C176,22,196.4,1.7,221.5,1.8c19.3,0,36.5,12.3,42.8,30.5H261
	c-5.8-14.4-20.8-24.4-39.8-24.4c-24,0-42.3,16.9-42.3,39.3s18.3,39.3,42.3,39.3c18.9,0,33.9-10,39.8-24.4h3.3
	c-8.3,23.7-34.2,36.2-57.9,28C188.2,83.7,176,66.5,175.9,47.2"/>
<path id="Trazado_98" class="st1" d="M462,46.5V91h-2.7V60.9c-5.2,19.2-22.9,32.2-42.7,31.6c-24.5,0.5-44.8-19-45.4-43.5
	c0-0.6,0-1.2,0-1.8c0.1-25.1,20.5-45.5,45.7-45.4c19.2,0.1,36.3,12.2,42.8,30.3h-3.4c-5.7-14.5-21-24.1-39.6-24.1
	c-24,0-42.3,16.9-42.3,39.3s18.3,39.2,42.3,39.2c22.4,0,39.6-14.4,42.2-34h-39.6v-5.8L462,46.5L462,46.5z"/>
<path id="Trazado_99" class="st1" d="M471.2,67.9h3.2c0,10.6,12.5,18.7,29.1,18.7c15.3,0,27.9-7,27.9-17.7c0-13.5-20-17.8-29.1-19.7
	c-20.1-4.2-29.1-12.8-29.1-24.4c0-14,13.1-23,29.4-23c17.1,0,29.9,10.2,29.9,23.6h-3c0-10-11.6-17.7-26.9-17.7
	c-14.2,0-26,6.6-26,16.6c0,13.1,19.7,17.4,27.1,18.9c20.8,4.2,31,12.8,31,25.2c0,14.9-14.4,24-31.2,24
	C485.1,92.5,471.3,81.9,471.2,67.9"/>
</svg>
