<?xml version="1.0" encoding="UTF-8"?>
<svg id="Capa_1" data-name="Capa 1" xmlns="http://www.w3.org/2000/svg" viewBox="0 0 135.79 136.02">
  <path d="m135.75,67.96c1.36,37.28-30.54,68.75-68.7,68.04C29.53,135.3-.12,105.82,0,67.63.12,30.76,29.32-1.52,71.88.06c33.12,1.22,65.17,30.37,63.86,67.91Zm-74.16-11.55c-7.08-1.09-13.29.16-19.2,3.57-15.33,8.85-17.06,33.47-3.41,44.93,8.13,6.83,20.37,9.68,30.65,4.62,9.88-4.87,15.86-13.05,16.12-24.48.22-9.74.05-19.49.05-28.9,5.6,1.57,10.89,3,16.14,4.55,3.5,1.04,4.97-.17,4.87-3.79-.11-3.81-.02-7.62-.02-11.38-11.75-2.77-19.61-9.07-21.53-21.2h-15.46v5.58c0,17.14.05,34.28-.05,51.42-.01,2.41-.47,4.9-1.23,7.19-1.25,3.79-7.54,7.79-11.19,7.49-5.14-.43-10.37-5.05-11.45-10.12-.98-4.63,1.58-10.43,6.06-12.29,2.92-1.22,6.24-1.48,9.66-2.23v-14.96Z"/>
</svg>