<?xml version="1.0" encoding="UTF-8"?>
<svg id="Capa_1" data-name="Capa 1" xmlns="http://www.w3.org/2000/svg" viewBox="0 0 348.37 349.28">
  <defs>
    <style>
      .cls-1 {
        fill: #fff;
      }
    </style>
  </defs>
  <path d="m348.14,174.32c5.15,93.16-77.75,177.52-176.11,174.9C76.08,346.67,1.48,274.64.02,175.39-1.37,81.11,73.21-4.03,185.03.15c84.1,3.14,166.98,77.45,163.11,174.17Zm-173.51,80.02c.04-1.43-.04,1.43,0,0,26.33,0,52.73,1.13,78.98-.33,23.84-1.33,32.69-11.4,35.49-35.27.4-3.38.23-6.83.21-10.24-.21-27.84,1.18-55.82-1.23-83.46-1.72-19.72-12.76-28.36-30.05-29.69-16.46-1.27-32.99-2.65-49.48-2.5-38.29.33-76.58,1.39-114.86,2.47-16.91.48-26.74,7.36-30.48,24.59-7.96,36.67-7.28,73.67-.11,110.5,2.43,12.51,9.72,20.41,22.94,21.45,29.49,2.34,59.1.23,88.6,2.48Z"/>
  <path class="cls-1" d="m153.69,143.31v62.6c18.64-10.88,35.91-20.96,54.18-31.63-18.94-10.83-35.84-20.49-54.18-30.98Z"/>
  <path d="m153.69,143.31c18.34,10.49,35.25,20.15,54.18,30.98-18.27,10.66-35.54,20.74-54.18,31.63v-62.6Z"/>
</svg>