<?xml version="1.0" encoding="UTF-8"?>
<svg id="Capa_1" data-name="Capa 1" xmlns="http://www.w3.org/2000/svg" viewBox="0 0 135.66 136.05">
  <path d="m135.59,68.39c1.78,35.79-30.19,68.67-68.58,67.63C27.82,134.97-.02,104.81,0,67.85.02,29.3,30.36-1.52,72.05.06c32.68,1.24,65.28,30.17,63.55,68.33Zm-24.98-.38c0-6.33.14-12.65-.03-18.97-.39-14.57-9.44-23.11-23.33-23.78-12.79-.62-25.65-.58-38.44.02-9.43.44-18.03,4.14-20.98,14.02-2.07,6.93-2.81,14.43-3.03,21.72-.29,9.57-.09,19.24,1,28.75,1.37,11.94,7.35,18.85,18.72,19.96,14.87,1.44,29.98.67,44.98.28,12.87-.33,21.34-10.94,21.11-24-.11-5.99-.02-11.98-.02-17.98Z"/>
  <path d="m67.98,33.73c7.74.42,15.56.32,23.21,1.42,6.67.95,10.05,5.99,10.35,12.56.54,11.74,1.07,23.5.96,35.25-.13,13.3-6.53,19.1-19.98,19.1-9.99,0-19.98,0-29.97,0-12.22,0-18.59-6.03-18.83-18.26-.2-10.49-.44-21,.07-31.47.54-10.94,4.96-18.87,18.69-18.23,5.15.24,10.32.04,15.48.04,0-.14.01-.27.02-.41Zm-.04,12.37c-12.95-1.11-22.42,10.24-22.26,21.55.17,12.08,8.35,22.58,22.53,22.48,12.85-.09,22.47-9.78,22.33-22.25-.13-12.08-9.45-22.89-22.61-21.78Zm23.53-5.98c-3.84-.32-5.77,1.1-5.96,5.26-.18,3.94,1.78,5.62,5.1,5.63,3.55.02,5.88-2.28,5.89-5.83,0-2.94-1.23-5.53-5.04-5.06Z"/>
  <path d="m54.66,68.14c-.01-7.29,6.59-14.11,13.58-14.02,6.84.09,13.23,6.73,13.4,13.73.19,7.62-5.5,13.72-13.58,13.65-7.99-.07-13.46-5.87-13.39-13.36Z"/>
</svg>