<?xml version="1.0" encoding="UTF-8"?>
<svg id="Capa_1" data-name="Capa 1" xmlns="http://www.w3.org/2000/svg" viewBox="0 0 135.85 136.04">
  <path d="m.05,68.12C-1.45,32.26,30.29-2.3,71.84.12c34.5,2.01,64.38,30.07,64,68.89-.36,36.88-29.7,68.05-70.39,67C30.34,135.1-.49,106.62.05,68.12Zm26.22,30.22c.61.89.8,1.37,1.16,1.64.78.58,1.61,1.1,2.46,1.56,11.66,6.32,24.15,7.21,36.76,4.47,20.85-4.53,36.25-22.49,38.39-43.63.34-3.32.63-7.08,2.36-9.71,1.9-2.89,5.44-4.72,8.26-7-.45-.52-.91-1.04-1.36-1.55-1.95.3-3.89.61-5.91.93,1.33-2.63,2.52-4.96,3.7-7.3-2.77-.02-4.71.68-6.57,1.57-2.69,1.28-4.65,1.89-7.71-.48-8.96-6.95-22.86-3.39-27.45,6.85-1.48,3.29-1.33,7.32-2,11.46-14.36-.83-25.7-7.82-35.64-18.74-4.48,8.25-3.24,15.29,1.58,22.44-1.71.08-2.98.14-4.24.2-.74,8.58,4.37,13.47,10.24,18.14-1.31-.29-2.62-.59-4.52-1.02,1.9,8.14,7.2,11.93,14.49,13.77-5.14,4.72-8.18,5.51-24.01,6.42Z"/>
</svg>