<?xml version="1.0" encoding="UTF-8"?>
<svg id="Capa_2" data-name="Capa 2" xmlns="http://www.w3.org/2000/svg" viewBox="0 0 294.56 52.02">
  <defs>
    <style>
      .cls-1 {
        fill: none;
        stroke-width: 2px;
      }

      .cls-1, .cls-2 {
        stroke: #1d1d1b;
        stroke-miterlimit: 10;
      }

      .cls-2, .cls-3 {
        fill: #1d1d1b;
      }
    </style>
  </defs>
  <g id="Capa_1-2" data-name="Capa 1">
    <g>
      <path class="cls-2" d="m175.05,1.2c-13.68,0-24.81,11.13-24.81,24.81s11.13,24.81,24.81,24.81,24.81-11.13,24.81-24.81S188.72,1.2,175.05,1.2Zm0,49.07c-13.38,0-24.26-10.88-24.26-24.26,0-2.89.51-5.67,1.44-8.24l9.69,14.93,1.34-13.98,13.3,23.57-1.12-11.22c2.52-.3,4.49-2.45,4.49-5.05,0-2.74-2.17-4.98-4.88-5.08l-.87-8.73,12.88,22.82,1.36-14.15,9.08,13.98.1.14c-3.58,8.95-12.33,15.29-22.54,15.29Zm-.2-19.72c-2.5,0-4.54-2.03-4.54-4.54s2.04-4.54,4.54-4.54,4.54,2.04,4.54,4.54-2.04,4.54-4.54,4.54Zm22.98,3.8l-.1-.15-9.71-14.96-1.34,13.98-13.3-23.57,1.12,11.28c-2.64.18-4.74,2.39-4.74,5.08s2.28,5.09,5.09,5.09h.05l.86,8.65-12.88-22.82-1.36,14.15-9.05-13.95s.01-.03.02-.04c3.56-8.98,12.33-15.34,22.57-15.34,13.38,0,24.26,10.88,24.26,24.26,0,2.87-.5,5.62-1.42,8.18-.02.05-.04.11-.06.16Z"/>
      <path class="cls-3" d="m42.42,26.29c0,13.79-10.36,24.15-24.22,24.15H0V2.13h18.2c13.86,0,24.22,10.36,24.22,24.15Zm-1.68,0c0-11.9-9.66-20.86-22.54-20.86H1.68v41.72h16.52c12.88,0,22.54-8.96,22.54-20.86Z"/>
      <path class="cls-3" d="m49.77,2.13h1.68v48.3h-1.68V2.13Z"/>
      <path class="cls-3" d="m58.1,37.7h1.75c0,5.81,6.86,10.29,16.03,10.29,8.4,0,15.4-3.85,15.4-9.73,0-7.42-10.99-9.8-16.03-10.85-11.06-2.31-16.03-7.07-16.03-13.44,0-7.7,7.21-12.67,16.17-12.67,9.45,0,16.45,5.6,16.45,13.02h-1.68c0-5.53-6.37-9.73-14.84-9.73-7.84,0-14.35,3.64-14.35,9.17,0,7.21,10.85,9.59,14.91,10.43,11.48,2.31,17.08,7.07,17.08,13.86,0,8.19-7.91,13.23-17.22,13.23-10.01,0-17.64-5.88-17.64-13.58Z"/>
      <path class="cls-3" d="m96.95,26.29c0-14.21,10.78-24.99,24.99-24.99,11.34,0,20.44,6.93,23.73,16.8h-1.82c-3.22-7.91-11.48-13.44-21.91-13.44-13.23,0-23.31,9.31-23.31,21.63s10.08,21.63,23.31,21.63c10.43,0,18.69-5.53,21.91-13.44h1.82c-3.29,9.87-12.39,16.8-23.73,16.8-14.21,0-24.99-10.78-24.99-24.99Z"/>
      <path class="cls-3" d="m254.59,25.94v24.5h-1.47v-16.59c-3.22,10.78-12.11,17.43-23.52,17.43-14.21,0-24.99-10.78-24.99-24.99S215.39,1.29,229.6,1.29c11.34,0,20.44,6.79,23.73,16.66h-1.89c-3.15-7.98-11.55-13.3-21.84-13.3-13.23,0-23.31,9.31-23.31,21.63s10.08,21.63,23.31,21.63c12.32,0,21.84-7.91,23.24-18.76h-21.84v-3.22h23.59Z"/>
      <path class="cls-3" d="m259.7,37.7h1.75c0,5.81,6.86,10.29,16.03,10.29,8.4,0,15.4-3.85,15.4-9.73,0-7.42-10.99-9.8-16.03-10.85-11.06-2.31-16.03-7.07-16.03-13.44,0-7.7,7.21-12.67,16.17-12.67,9.45,0,16.45,5.6,16.45,13.02h-1.68c0-5.53-6.37-9.73-14.84-9.73-7.84,0-14.35,3.64-14.35,9.17,0,7.21,10.85,9.59,14.91,10.43,11.48,2.31,17.08,7.07,17.08,13.86,0,8.19-7.91,13.23-17.22,13.23-10.01,0-17.64-5.88-17.64-13.58Z"/>
      <circle class="cls-1" cx="175.04" cy="26.01" r="25.01"/>
    </g>
  </g>
</svg>